<svg xmlns="http://www.w3.org/2000/svg" width="32" height="32" fill="none"><path fill="url(#a)" d="M16.669 31.985a16 16 0 0 1-1.338 0zM16 0c8.837 0 16 7.163 16 16 0 5.492-2.768 10.336-6.984 13.218a17.95 17.95 0 0 0-8.757-2.278c-3.199 0-6.317.851-9.037 2.437C2.872 26.517 0 21.595 0 16 0 7.163 7.163 0 16 0m-.39 6.731c-.064-2.292-3.491-2.3-3.557 0v2.966c-.642-.076-.958-.839-1.003-1.438h.002A1.75 1.75 0 0 0 9.08 6.812 1.734 1.734 0 0 0 7.579 8.73c.388 3.675 3.155 4.31 4.327 4.413a.5.5 0 0 1 .426.36c.65 2.098 1.891 4.751 2.27 6.938.047.239-.17.517-.43.393v-.002a6.47 6.47 0 0 1-3.897-5.052l.004-.77a1.78 1.78 0 0 0-1.792-1.751A1.78 1.78 0 0 0 6.7 15.015v1.167c-.556.508-2.2 2.072-2.222 2.096-1.557 1.524.566 3.812 2.204 2.386 0 0 1.149-1.063 1.155-1.07.648 1.348 2.039 2.307 3.226 3.195 1.19.955 3.115 1.862 3.48 3.37a17.3 17.3 0 0 1 3.77.037c.267-.8.882-1.441 1.678-1.746l2.432-.98a7.92 7.92 0 0 0 3.93-3.4c.855-1.515 2.18-5.585-.747-5.654a1.75 1.75 0 0 0-1.6 1.863 5.24 5.24 0 0 1-3.15 4.04l-1.782.751a.68.68 0 0 1-.634-.03.66.66 0 0 1-.32-.54 12.1 12.1 0 0 0-.924-3.608.62.62 0 0 1 .237-.775 16 16 0 0 0 2.455-1.83c.451-.375 1.277-.268 1.86-.411h-.002a4.68 4.68 0 0 0 2.933-1.858l1.244-1.536-.001-.002a1.43 1.43 0 0 0-.045-1.916 1.48 1.48 0 0 0-1.932-.188l-2.09 1.522V6.91c-.14-2.473-3.67-2.36-3.605.285-.015.52.045 2.474-.052 2.942-.247 1.43-1.169 2.223-2.388 2.857-.3-1.577-.175-4.619-.2-6.262"/><defs><radialGradient id="a" cx="0" cy="0" r="1" gradientTransform="rotate(90 0 16)scale(16)" gradientUnits="userSpaceOnUse"><stop stop-color="#21BCEE"/><stop offset=".5" stop-color="#116BF8"/><stop offset="1" stop-color="#052698"/></radialGradient></defs></svg>