<svg xmlns="http://www.w3.org/2000/svg" width="120" height="24" fill="none"><g clip-path="url(#a)"><path fill="#fff" d="M12 2.163c3.204 0 3.584.012 4.85.07 3.252.148 4.771 1.691 4.919 4.919.058 1.265.069 1.645.069 4.849s-.012 3.584-.069 4.849c-.149 3.225-1.664 4.771-4.919 4.919-1.266.058-1.644.07-4.85.07-3.204 0-3.584-.012-4.849-.07-3.26-.149-4.771-1.699-4.919-4.92-.058-1.265-.07-1.644-.07-4.849s.013-3.583.07-4.849c.149-3.227 1.664-4.771 4.919-4.919 1.266-.057 1.645-.069 4.849-.069M12 0C8.741 0 8.333.014 7.053.072 2.695.272.273 2.69.073 7.052.014 8.333 0 8.741 0 12s.014 3.668.072 4.948c.2 4.358 2.618 6.78 6.98 6.98C8.333 23.986 8.741 24 12 24s3.668-.014 4.948-.072c4.354-.2 6.782-2.618 6.979-6.98.059-1.28.073-1.689.073-4.948s-.014-3.667-.072-4.947c-.196-4.354-2.617-6.78-6.979-6.98C15.668.014 15.259 0 12 0m0 5.838a6.162 6.162 0 1 0 0 12.324 6.162 6.162 0 0 0 0-12.324M12 16a4 4 0 1 1 0-8 4 4 0 0 1 0 8m6.406-11.845a1.44 1.44 0 1 0 0 2.881 1.44 1.44 0 0 0 0-2.881"/></g><g clip-path="url(#b)"><path fill="#fff" fill-rule="evenodd" d="M72 3c0-1.656-1.344-3-3-3H51c-1.656 0-3 1.344-3 3v18c0 1.656 1.344 3 3 3h18c1.656 0 3-1.344 3-3z" clip-rule="evenodd"/><path fill="#21BCEE" d="M54.882 8.374h-4.02v12.092h4.02zM52.899 2.544c-1.375 0-2.274.904-2.274 2.09 0 1.16.871 2.089 2.22 2.089h.027c1.401 0 2.274-.93 2.274-2.09-.026-1.185-.872-2.089-2.247-2.089M64.748 8.09c-2.133 0-3.088 1.173-3.623 1.996V8.374h-4.019c.053 1.134 0 12.092 0 12.092h4.02v-6.753c0-.361.025-.723.132-.981.29-.722.951-1.47 2.062-1.47 1.453 0 2.036 1.11 2.036 2.734v6.47h4.019v-6.934c0-3.714-1.983-5.442-4.627-5.442"/></g><path fill="#fff" d="M114.9 1.153h3.682l-8.042 9.189L120 22.848h-7.405l-5.804-7.583-6.634 7.583h-3.688l8.6-9.831L96 1.153h7.593l5.241 6.93zm-1.293 19.494h2.039L102.482 3.239h-2.19z"/><defs><clipPath id="a"><path fill="#fff" d="M0 0h24v24H0z"/></clipPath><clipPath id="b"><path fill="#fff" d="M48 0h24v24H48z"/></clipPath></defs></svg>